<?xml version="1.0" encoding="UTF-8"?><svg id="Layer_1" xmlns="http://www.w3.org/2000/svg" width="432.65" height="421.3" viewBox="0 0 432.65 421.3"><defs><style>.cls-1{fill:#fff;fill-rule:evenodd;}</style></defs><path class="cls-1" d="m129.1,76.86c25.74,0,46.8-21.06,46.8-46.8V0h-75.12C53.59,0,13.7,32.88,2.89,76.86c-1.89,7.67-2.89,15.69-2.89,23.92v219.73c0,55.43,45.35,100.79,100.79,100.79h139.78c-50.96,0-92.66-41.7-92.66-92.66v-182.98h-60.45v-68.79h41.65Zm303.55,68.79v174.85c0,17.22-4.38,33.47-12.07,47.68h-128.23c-32.26,0-58.66-26.39-58.66-58.66v-163.88h198.96ZM233.21,0h98.65c47.2,0,87.09,32.88,97.9,76.86h-196.55V0Z"/></svg>