<?xml version="1.0" encoding="UTF-8"?><svg id="Layer_1" xmlns="http://www.w3.org/2000/svg" width="288.76" height="225.73" viewBox="0 0 288.76 225.73"><defs><style>.cls-1{fill:#fff;fill-rule:evenodd;}</style></defs><path class="cls-1" d="m3.94,62.91l67.78.04c13.78,0,17.66,2.78,17.65,17.13l-.02,104.48c0,11.37-.34,23.24,0,34.54.19,6.33,4.07,8.54,8.96,4.84,3.45-2.61,6.59-5.57,9.52-7.99,12.47-10.3,25.43-21.14,37.87-31.61,7.13-6,12.73-9.36,16.45-18.11,3.7-8.7,2.23-22.14,2.24-32.72l-.02-104.01c-.01-12.79,2.51-22.82-7.01-28.05-1.42-.67-3.56-1.29-6.08-1.29-19.6,0-39.24.14-58.83-.09-15.68-.19-24.83.07-36.5,9.88L10.15,48.28c-5.35,4.47-15.89,12.09-6.21,14.63h0ZM188.47,14.36c-.01,14.72-.36,34.46.07,48.56,17.18.1,29.31,1.86,42.79-9.52l49.21-41.07C289.16,5.09,294.3,0,278.8,0h-77.06c-8.44.01-13.26,5.31-13.27,14.36Z"/></svg>